<svg width="236" height="132" viewBox="0 0 236 132" fill="none" xmlns="http://www.w3.org/2000/svg">
<path d="M100.246 1.47693V26.7692H65.9077V131.077H34.3385V26.7692H0V1.47693H100.246Z" fill="#FFDE58"/>
<path d="M198.428 42.4615C196.09 38.1538 192.705 34.8923 188.274 32.6769C183.967 30.3385 178.859 29.1692 172.951 29.1692C162.736 29.1692 154.551 32.5538 148.398 39.3231C142.244 45.9692 139.167 54.8923 139.167 66.0923C139.167 78.0308 142.367 87.3846 148.767 94.1538C155.29 100.8 164.213 104.123 175.536 104.123C183.29 104.123 189.813 102.154 195.105 98.2154C200.521 94.2769 204.459 88.6154 206.921 81.2308H166.859V57.9692H235.536V87.3231C233.198 95.2 229.198 102.523 223.536 109.292C217.998 116.062 210.921 121.538 202.305 125.723C193.69 129.908 183.967 132 173.136 132C160.336 132 148.89 129.231 138.798 123.692C128.828 118.031 121.013 110.215 115.351 100.246C109.813 90.2769 107.044 78.8923 107.044 66.0923C107.044 53.2923 109.813 41.9077 115.351 31.9385C121.013 21.8462 128.828 14.0308 138.798 8.49231C148.767 2.83077 160.151 0 172.951 0C188.459 0 201.505 3.75384 212.09 11.2615C222.798 18.7692 229.874 29.1692 233.321 42.4615H198.428Z" fill="#FFDE58"/>
<path d="M55.6615 81.4615L51.6185 74.1231H50.4831V81.4615H45.7477V62.0215H53.6954C55.2277 62.0215 56.5292 62.2892 57.6 62.8246C58.6892 63.36 59.5015 64.0985 60.0369 65.04C60.5723 65.9631 60.84 66.9969 60.84 68.1415C60.84 69.4338 60.4708 70.5877 59.7323 71.6031C59.0123 72.6185 57.9415 73.3385 56.52 73.7631L61.0061 81.4615H55.6615ZM50.4831 70.7723H53.4185C54.2861 70.7723 54.9323 70.56 55.3569 70.1354C55.8 69.7108 56.0215 69.1108 56.0215 68.3354C56.0215 67.5969 55.8 67.0154 55.3569 66.5908C54.9323 66.1662 54.2861 65.9538 53.4185 65.9538H50.4831V70.7723Z" fill="#FCFDF6"/>
<path d="M67.9941 65.8154V69.7477H74.3357V73.4031H67.9941V77.6677H75.1664V81.4615H63.2587V62.0215H75.1664V65.8154H67.9941Z" fill="#FCFDF6"/>
<path d="M76.8838 71.7138C76.8838 69.7938 77.2992 68.0862 78.1299 66.5908C78.9607 65.0769 80.1145 63.9046 81.5915 63.0738C83.0869 62.2246 84.7761 61.8 86.6592 61.8C88.9669 61.8 90.9422 62.4092 92.5853 63.6277C94.2284 64.8462 95.3269 66.5077 95.8807 68.6123H90.6745C90.2869 67.8 89.733 67.1815 89.013 66.7569C88.3115 66.3323 87.5084 66.12 86.6038 66.12C85.1453 66.12 83.9638 66.6277 83.0592 67.6431C82.1546 68.6585 81.7022 70.0154 81.7022 71.7138C81.7022 73.4123 82.1546 74.7692 83.0592 75.7846C83.9638 76.8 85.1453 77.3077 86.6038 77.3077C87.5084 77.3077 88.3115 77.0954 89.013 76.6708C89.733 76.2462 90.2869 75.6277 90.6745 74.8154H95.8807C95.3269 76.92 94.2284 78.5815 92.5853 79.8C90.9422 81 88.9669 81.6 86.6592 81.6C84.7761 81.6 83.0869 81.1846 81.5915 80.3538C80.1145 79.5046 78.9607 78.3323 78.1299 76.8369C77.2992 75.3415 76.8838 73.6338 76.8838 71.7138Z" fill="#FCFDF6"/>
<path d="M102.962 65.8154V69.7477H109.304V73.4031H102.962V77.6677H110.134V81.4615H98.2268V62.0215H110.134V65.8154H102.962Z" fill="#FCFDF6"/>
<path d="M127.47 68.28C127.47 69.4062 127.212 70.44 126.695 71.3815C126.178 72.3046 125.384 73.0523 124.313 73.6246C123.243 74.1969 121.913 74.4831 120.326 74.4831H117.39V81.4615H112.655V62.0215H120.326C121.876 62.0215 123.187 62.2892 124.258 62.8246C125.329 63.36 126.132 64.0985 126.667 65.04C127.203 65.9815 127.47 67.0615 127.47 68.28ZM119.966 70.7169C120.87 70.7169 121.544 70.5046 121.987 70.08C122.43 69.6554 122.652 69.0554 122.652 68.28C122.652 67.5046 122.43 66.9046 121.987 66.48C121.544 66.0554 120.87 65.8431 119.966 65.8431H117.39V70.7169H119.966Z" fill="#FCFDF6"/>
<path d="M143.366 62.0215V65.8154H138.216V81.4615H133.48V65.8154H128.329V62.0215H143.366Z" fill="#FCFDF6"/>
<path d="M149.924 62.0215V81.4615H145.189V62.0215H149.924Z" fill="#FCFDF6"/>
<path d="M171.051 62.0215L164.156 81.4615H158.23L151.335 62.0215H156.375L161.193 76.6985L166.039 62.0215H171.051Z" fill="#FCFDF6"/>
<path d="M181.671 81.6554C179.843 81.6554 178.163 81.2308 176.631 80.3815C175.117 79.5323 173.908 78.3508 173.003 76.8369C172.117 75.3046 171.674 73.5877 171.674 71.6862C171.674 69.7846 172.117 68.0769 173.003 66.5631C173.908 65.0492 175.117 63.8677 176.631 63.0185C178.163 62.1692 179.843 61.7446 181.671 61.7446C183.498 61.7446 185.169 62.1692 186.683 63.0185C188.215 63.8677 189.415 65.0492 190.283 66.5631C191.169 68.0769 191.612 69.7846 191.612 71.6862C191.612 73.5877 191.169 75.3046 190.283 76.8369C189.397 78.3508 188.197 79.5323 186.683 80.3815C185.169 81.2308 183.498 81.6554 181.671 81.6554ZM181.671 77.3354C183.221 77.3354 184.458 76.8185 185.381 75.7846C186.323 74.7508 186.794 73.3846 186.794 71.6862C186.794 69.9692 186.323 68.6031 185.381 67.5877C184.458 66.5538 183.221 66.0369 181.671 66.0369C180.101 66.0369 178.846 66.5446 177.904 67.56C176.981 68.5754 176.52 69.9508 176.52 71.6862C176.52 73.4031 176.981 74.7785 177.904 75.8123C178.846 76.8277 180.101 77.3354 181.671 77.3354Z" fill="#FCFDF6"/>
</svg>
