<svg width="280" height="132" viewBox="0 0 280 132" fill="none" xmlns="http://www.w3.org/2000/svg">
<g clip-path="url(#clip0_1_266)">
<path d="M205.162 3.51429C180.159 5.91428 157.896 23.3143 149.847 46.6286C148.991 49.2 148.477 51.5143 148.734 51.7714C149.505 52.5429 177.505 52.3714 178.703 51.6C179.217 51.2571 180.502 47.4857 181.444 43.2857C184.954 28.4571 192.404 17.8286 202.679 13.1143C208.673 10.3714 220.061 9.42857 227.682 11.1429C241.297 14.1429 253.113 24.5143 260.135 39.6C262.275 44.3143 263.731 46.2857 264.759 46.2857C266.214 46.2857 266.3 44.9143 266.3 24.9429C266.3 13.0286 265.957 3.34286 265.529 3.08571C264.074 2.14286 262.361 3.51429 261.333 6.25714C260.049 9.94286 256.025 12.3429 252.428 11.5714C250.973 11.2286 245.835 9.42857 241.04 7.71429C233.162 4.71429 219.976 2.22857 214.324 2.65714C213.468 2.74286 209.358 3.17143 205.162 3.51429Z" fill="black"/>
<path d="M1.71265 23.1429V39.4286H3.68207C5.3946 39.4286 5.82274 38.7429 6.67901 34.3714C7.96341 28.4572 13.0154 20.2286 17.2967 17.4C21.0643 14.8286 26.3732 13.8 34.9359 13.7143H41.9573V66C41.9573 104.657 41.7004 118.8 40.9298 120.429C39.4741 123.6 34.3365 126 29.1133 126C25.4313 126 24.8319 126.257 24.8319 127.714C24.8319 129.429 25.4313 129.429 56.942 129.429C88.4527 129.429 89.0521 129.429 89.0521 127.714C89.0521 126.257 88.4527 126 84.7708 126C79.5475 126 75.0949 124.286 73.3824 121.543C71.7555 119.057 71.1561 112.543 71.0704 96.6V84H60.7952H50.52L50.6912 68.0571L50.9481 52.0286L59.5108 52.2C64.2203 52.2857 68.7585 52.1143 69.6148 51.7714C70.8992 51.2571 71.0704 49.4572 71.0704 32.4857V13.7143H79.4619C90.4221 13.7143 94.7891 15.2571 100.098 21.0857C103.009 24.3429 104.722 27.1714 106.52 32.4C108.404 37.8857 109.26 39.4286 110.544 39.4286C112.086 39.4286 112.171 38.5714 112.171 23.1429V6.85715H56.942H1.71265V23.1429Z" fill="black"/>
<path d="M62.5078 68.1429C62.5078 72.4286 62.8503 75.4286 63.3641 75.4286C63.8778 75.4286 64.2204 73.9714 64.2204 72.1714L64.306 69L67.3029 72.2571C69.0155 74.0571 70.6424 75.3429 70.8993 75C71.2418 74.7429 71.0705 74.2286 70.6424 73.8857C70.1286 73.5429 69.2723 72.6 68.5873 71.7429C67.4742 70.3714 67.5598 70.0286 69.1867 68.9143C71.5843 67.2 71.7555 63 69.4436 61.7143C68.5017 61.2857 66.6179 60.8572 65.1622 60.8572H62.5078V68.1429ZM69.7861 64.2857C70.5567 66.6 68.8442 68.5714 66.2754 68.5714C64.4772 68.5714 64.2204 68.1429 64.2204 65.5714C64.2204 62.8286 64.3916 62.5714 66.7035 62.5714C68.5017 62.5714 69.4436 63.0857 69.7861 64.2857Z" fill="black"/>
<path d="M79.6331 68.1429V75.4286H83.6575C88.0245 75.4286 88.1101 74.3143 83.6575 74.2286C81.3456 74.1429 80.9175 73.8 80.6606 71.7429C80.4037 69.3429 80.8318 69.0857 84.5138 69.3429C85.4557 69.4286 86.5688 69.0857 86.9113 68.6571C87.2539 68.0571 86.2263 67.7143 84 67.7143C80.6606 67.7143 80.4893 67.5429 80.4893 65.2286C80.4893 62.5714 82.4587 61.2 85.0276 62.1429C85.7126 62.4857 86.5688 62.3143 86.9113 61.8C87.2539 61.2 86.0551 60.8572 83.5719 60.8572H79.6331V68.1429Z" fill="black"/>
<path d="M98.8135 61.8857C96.9297 62.7429 95.0459 65.9143 95.0459 68.1429C95.0459 71.7429 98.7279 75.4286 102.324 75.4286C103.78 75.4286 108.746 71.2286 107.376 71.1429C106.862 71.1429 105.921 71.7429 105.321 72.4286C103.865 74.2286 99.9266 74.0571 98.2141 72.1714C96.3303 70.0286 96.4159 65.7429 98.2997 64.0286C100.269 62.2286 103.865 62.1429 105.321 63.8571C105.921 64.5429 106.862 65.1429 107.376 65.1429C107.89 65.1429 107.205 64.1143 105.921 63C103.352 60.6857 101.725 60.4286 98.8135 61.8857Z" fill="black"/>
<path d="M115.596 68.1429V75.4286L119.707 75.3429C123.817 75.2571 123.817 75.0857 119.707 74.2286C117.737 73.8 117.309 73.2 117.309 71.2286C117.309 69.1714 117.651 68.8286 119.364 69C120.477 69.1714 121.847 68.9143 122.532 68.4857C123.388 67.9714 122.703 67.7143 120.563 67.7143C117.566 67.7143 117.309 67.5429 117.309 65.1429C117.309 62.7429 117.566 62.5714 120.306 62.5714C121.933 62.5714 123.303 62.1429 123.303 61.7143C123.303 61.2 121.59 60.8572 119.45 60.8572H115.596V68.1429Z" fill="black"/>
<path d="M132.893 68.3143C132.893 72.5143 133.15 74.6571 133.321 73.2C133.664 70.8857 134.092 70.3714 136.661 69.8571C140.6 69.1714 142.141 66.1714 140.086 63C139.058 61.3714 137.945 60.8571 135.719 60.8571H132.722L132.893 68.3143ZM139.144 65.5714C139.144 67.8857 138.801 68.1429 136.404 68.4C133.664 68.6571 133.578 68.5714 133.578 65.5714C133.578 62.5714 133.664 62.4857 136.404 62.7429C138.801 63 139.144 63.2571 139.144 65.5714Z" fill="black"/>
<path d="M147.706 61.7143C147.963 62.1429 148.82 62.5714 149.505 62.5714C150.447 62.5714 150.703 63.9429 150.703 69C150.703 72.6857 151.046 75.4286 151.56 75.4286C152.073 75.4286 152.416 72.8571 152.416 69.3429C152.416 64.4571 152.758 62.9143 153.957 62.0571C155.242 61.0286 154.899 60.9429 151.303 60.8572C148.734 60.8572 147.364 61.2 147.706 61.7143Z" fill="black"/>
<path d="M162.691 68.1429C162.691 72.4286 163.034 75.4286 163.547 75.4286C164.061 75.4286 164.404 72.4286 164.404 68.1429C164.404 63.8571 164.061 60.8572 163.547 60.8572C163.034 60.8572 162.691 63.8571 162.691 68.1429Z" fill="black"/>
<path d="M172.11 61.2857C172.11 62.2286 177.419 75.5143 177.676 75.2571C178.618 74.1429 183.327 61.5429 182.899 61.1143C182.642 60.8571 181.786 62.0571 181.101 63.9429C180.33 65.7429 179.303 68.4 178.703 69.7714L177.59 72.2571L175.535 67.2C173.651 62.3143 172.11 59.7429 172.11 61.2857Z" fill="black"/>
<path d="M193.774 62.1429C187.866 66.3429 191.633 76.7143 198.483 75C202.165 74.0571 203.792 72.0857 203.792 68.4C203.792 62.4857 198.226 58.9714 193.774 62.1429ZM201.566 64.4571C204.477 68.6571 202.165 73.7143 197.37 73.7143C192.404 73.7143 190.006 67.8 193.517 64.2857C195.829 61.9714 199.939 62.0571 201.566 64.4571Z" fill="black"/>
<path d="M226.911 78.6857C226.911 79.8 228.024 80.7429 230.251 81.6C236.245 84 236.758 85.5429 237.101 104.571L237.358 121.286L234.532 122.314C224.771 125.743 212.269 125.829 203.621 122.657C191.291 117.943 184.526 108.686 180.758 91.2857L179.217 84.4286L163.547 84.1714L147.878 84L148.477 86.7429C148.734 88.2857 150.532 92.7429 152.502 96.6857C159.951 111.943 175.621 124.371 194.031 129.6C199.853 131.229 202.936 131.486 215.352 131.486C234.275 131.486 246.691 129.171 263.56 122.486L266.3 121.371V104.829C266.3 94.2 266.642 87.6 267.327 86.2286C268.612 83.2286 271.266 81.6857 275.976 81C279.144 80.4857 280 80.0571 280 78.7714C280 77.2286 278.887 77.1428 253.456 77.1428C228.196 77.1428 226.911 77.2286 226.911 78.6857Z" fill="black"/>
</g>
<defs>
<clipPath id="clip0_1_266">
<rect width="280" height="132" fill="white"/>
</clipPath>
</defs>
</svg>
